<svg id="Layer_2" xmlns="http://www.w3.org/2000/svg" viewBox="0 0 175.79 77.02"><g id="letters" fill="currentColor"><path id="Path_146" d="M127.34 59.46c2.96 0 5.79-.04 8.61.03a6.6 6.6 0 012.27.53c2.15.81 3.25 3.2 2.44 5.36-.29.77-.8 1.43-1.46 1.92-.2.15-.4.31-.72.54.47.23.84.41 1.21.6 2.77 1.36 2.78 5.95.3 7.31-.89.54-1.89.87-2.93.98-3.2.12-6.41.05-9.72.05V59.49zm1.73 15.78c.18.06.37.11.57.13 2.25 0 4.5 0 6.76-.04.52-.03 1.03-.13 1.52-.31a3.118 3.118 0 001.95-3.96 3.168 3.168 0 00-1.99-1.97c-.7-.22-1.43-.34-2.16-.36-1.95-.05-3.9-.02-5.85-.01-.26.02-.53.06-.79.12v6.39zm.16-14.32c-.35 2.09-.34 4.22.04 6.31 2.18 0 4.39.03 6.59-.02.52-.04 1.02-.18 1.49-.41a2.888 2.888 0 001.69-3.52 3.074 3.074 0 00-3.09-2.33c-2.24-.13-4.49-.04-6.72-.04"></path><path id="Path_147" d="M66.26 59.42c2.08 0 4.07-.02 6.06.01.87 0 1.73.08 2.59.22 3.43.63 5.54 3.2 4.69 7.35a4.806 4.806 0 01-2.44 3.23c-.37.22-.75.41-1.3.71l4 5.65c-1.56.4-1.62.39-2.42-.75-.88-1.24-1.79-2.46-2.62-3.73a1.73 1.73 0 00-1.73-.85c-1.64.06-3.29.02-5.06.02-.23 1.85.02 3.62-.16 5.45h-1.6V59.41zM68 69.82c1.78 0 3.42.03 5.05-.01a7.84 7.84 0 001.92-.3 3.773 3.773 0 002.84-2.6c.68-2.43 0-5.24-3.32-5.77-1.8-.19-3.62-.27-5.43-.24-.35.01-.71.05-1.06.11v8.81z"></path><path id="Path_148" d="M101.04 68.16c-.02 5.12-3.95 8.88-9.24 8.84-4.9.08-8.94-3.83-9.03-8.73s3.83-8.94 8.73-9.03h.49c5.25.08 9.06 3.83 9.04 8.92m-9.18 7.27a7.31 7.31 0 007.2-7.4 7.31 7.31 0 00-7.4-7.2c-3.95.05-7.14 3.24-7.2 7.19-.13 3.96 2.97 7.28 6.93 7.41h.47"></path><path id="Path_149" d="M51.27 60.85v6.38c1.47.01 2.92.03 4.38.04h4.48v1.41h-8.65c-.36 2.18-.41 4.4-.16 6.6 3.37.19 6.79-.03 10.3.13.03.45.05.86.07 1.34H49.67c-.26-.97-.33-15.58-.07-17.23h11.67c.03.37.07.77.12 1.33H51.28z"></path><path id="Path_150" d="M1.67 71.3v5.43H0V59.42c2.16 0 4.23-.02 6.3.01.78 0 1.56.08 2.33.23 3.08.38 5.27 3.19 4.89 6.27-.03.24-.08.48-.14.72a5.166 5.166 0 01-3.13 3.9c-1.15.51-2.41.77-3.67.75h-4.9m.05-1.53c1.89 0 3.62.02 5.34-.01a6.13 6.13 0 001.53-.26c2.3-.66 3.62-3.06 2.95-5.36a4.354 4.354 0 00-2.83-2.92c-2.28-.62-4.62-.3-7-.28v8.82z"></path><path id="Path_151" d="M161.03 76.76h-1.8c-.69-1.49-1.39-3.01-2.11-4.57h-9.81c-.68 1.48-1.38 3-2.1 4.57h-1.76c2.59-5.81 5.24-11.49 7.86-17.25h1.84l7.89 17.26m-13.01-6.24c2.73.32 5.49.33 8.23.01-.41-1.63-3.5-8.31-4.21-9-1.35 3.01-2.68 5.99-4.01 8.99"></path><path id="Path_152" d="M21.9 59.47h1.81l7.9 17.27h-1.83c-.56-1.26-1.15-2.51-1.69-3.78a1.2 1.2 0 00-1.28-.84c-2.69.03-5.38.03-8.07 0-.57-.05-1.1.31-1.26.87-.54 1.27-1.13 2.52-1.7 3.79h-1.8c2.67-5.84 5.29-11.57 7.91-17.31m-3.3 11.07c2.74.32 5.5.32 8.24-.02-.47-1.76-3.53-8.35-4.22-8.97l-4.02 9"></path><path id="Path_153" d="M115.8 60.8c-.21.47-.36.81-.47 1.07-1.46-.38-2.82-.81-4.21-1.07-1.17-.2-2.37-.05-3.44.45-1.14.41-1.9 1.5-1.9 2.71-.03 1.18.74 2.23 1.88 2.54 1.05.39 2.16.65 3.23.99s2.17.63 3.2 1.06c1.44.5 2.42 1.85 2.45 3.38.14 1.6-.64 3.14-2.01 3.98a7.88 7.88 0 01-4.88 1.08 9.342 9.342 0 01-5.98-2.2l.64-1.28a9.028 9.028 0 004.86 1.96c1.08.05 2.16-.03 3.22-.25 1.01-.17 1.86-.85 2.25-1.8a2.44 2.44 0 00-.89-3.1c-.75-.44-1.54-.78-2.37-1.03-.99-.32-2.02-.51-3.01-.81-.67-.2-1.32-.44-1.95-.73-3.34-1.54-2.84-5.82-.41-7.36a7.611 7.611 0 014.1-1.1c2.01-.11 4.01.42 5.7 1.52"></path><path id="Path_154" d="M160.42 59.54c.95-.4 2.05.04 2.45.99 0 .01.01.03.02.04 1.43 2.48 2.96 4.9 4.46 7.34.24.39.51.76.84 1.26.36-.55.63-.93.88-1.33 1.52-2.48 3.07-4.93 4.52-7.45.35-.83 1.3-1.22 2.12-.87.03.01.05.02.08.03-.22.4-.41.78-.63 1.14-1.74 2.85-3.45 5.72-5.24 8.54-.7.99-1.05 2.2-.97 3.41.07.9.02 1.82 0 2.73 0 .43-.04.85-.07 1.35h-1.61c0-1.25-.08-2.45.02-3.65.1-1.47-.31-2.94-1.16-4.14-1.75-2.69-3.37-5.46-5.04-8.2-.22-.36-.42-.74-.68-1.2"></path><path id="Path_155" d="M34.74 76.74V59.52h1.69v15.8h9.74c.03.53.05.93.08 1.42H34.74z"></path></g><g id="shape" fill="currentColor"><path id="Path_156" d="M105 49.89h-1.78V22c.08-11.07-8.83-20.1-19.9-20.18-9.59-.07-17.89 6.67-19.79 16.08-.29 1.58-.43 3.18-.41 4.79-.04 8.47-.02 16.94-.02 25.41v1.75h-1.75c-.02-.46-.06-.88-.06-1.3 0-8.95-.04-17.9 0-26.84C61.38 9.64 71.22-.07 83.27 0c10.73.06 19.82 7.92 21.45 18.52.19 1.33.27 2.68.26 4.02.02 8.65.01 17.29.01 25.93v1.41"></path><path id="Path_157" d="M68.17 49.86h-1.71c-.03-.48-.08-.9-.08-1.32 0-8.78-.02-17.56 0-26.33.02-6.71 2.94-11.82 8.77-15.09 8.13-4.44 18.31-1.44 22.75 6.69.95 1.75 1.59 3.65 1.87 5.62.12.86.19 1.73.2 2.59.01 8.87.02 17.73 0 26.6 0 .38-.04.77-.06 1.24h-1.7V22.74c.09-2.97-.65-5.91-2.12-8.48-4.2-7.14-13.39-9.52-20.52-5.32a14.999 14.999 0 00-7.18 10.4c-.15.94-.23 1.89-.22 2.85-.02 8.69-.02 17.39 0 26.07v1.61"></path><path id="Path_158" d="M111.61 49.94a2.356 2.356 0 11-.008-4.712 2.356 2.356 0 01.008 4.712"></path></g></svg>